<svg xmlns="http://www.w3.org/2000/svg" viewBox="0 0 560.89 566.48">
  <defs>
    <style>
      .cls-1 {
        fill: #231f20;
      }

      .cls-2 {
        fill: #808285;
      }

      .cls-3, .cls-4 {
        fill: none;
      }

      .cls-4 {
        stroke: #808285;
        stroke-miterlimit: 10;
        stroke-width: 0.75px;
      }
    </style>
  </defs>
  <g id="Bear">
    <g>
      <path class="cls-1" d="M189.58,453.75c-.91-2.85-1.82-5.69-2.71-8.54C187.9,448,188.79,450.78,189.58,453.75Z" transform="translate(-15.44 -82.53)"/>
      <path class="cls-1" d="M299.47,229.07c-6.69.67-19.9,10.06-25.19,13.94a121.59,121.59,0,0,0-16.78,15.37c-10.87,11.6-20.94,24-31.17,36.16-20.64,24.53-41.17,51.38-44.93,84.42a13.21,13.21,0,0,0-.08,1.33c-7.2,1.8-13.11,9.54-15.76,15.85a31,31,0,0,0,1,25.53c2.76,5.52,10.16,10.19,16,12.54a9,9,0,0,0,.71,2.4,86,86,0,0,1,3.57,8.55s0,0,0,0c1,2.76,1.92,5.57,2.71,8.54a.19.19,0,0,1,0,.08c.26.91.5,1.85.73,2.8,1.86,7.59,3.47,15.27,5.75,22.74,3.85,12.64,8.17,26.2,3.9,39.27-4.61,14.15-12,27.85-12.18,43.05-.09,7.07.8,14.74,3.39,21.37a53.31,53.31,0,0,0,5.81,9.52c6.83,8.84,11.41,14.43,17.5,23.53,3.22,4.81,7.54,9.36,10.82,14.14,2.06,3,4.16,6.64,6.72,9.29,1.13,1.17,3.41,3.11,3.79,3.42,6.07,4.88,10.47,6.34,17.75,6,1.12-.05,4.69-.31,4.69-.31,12.15-.73,16.93-6.87,20.9-17.64,2-5.34,3.71-11.42,3.91-17.13.21-5.87-3.79-10.42-7.09-15-7.57-10.62-17.45-21.71-15-35.79,1.2-6.91,4.76-13.18,9-18.66s9.63-11.76,15.71-15.06a1.75,1.75,0,0,0,.29-.18,109.58,109.58,0,0,0,10.17,4.94c12.39,5.25,26.73,6.06,38.42,12.78a46.46,46.46,0,0,1,15.06,13.88c3.28,4.94,6.6,8.24,12.79,8.24a3.92,3.92,0,0,0,1.67-.29c1.52-.32,2.37-.6,3.88-1a24,24,0,0,1,8.45-1.05A86.4,86.4,0,0,1,395,569.77c11.16,3.11,22,9,33.62,10,10.17.81,19.17.54,28.92-2.55l2.46-.65a27.64,27.64,0,0,0,6-2.53,16.55,16.55,0,0,0,3.59-2.32c.78-.71,2.68-3,2.68-3a23.59,23.59,0,0,0,3.14-4.5,31.54,31.54,0,0,0,1.37-3.69c1.78-5.76,1.79-10.43-.46-16.15-1.33-3.35-1.59-4.86-4.46-9a19.63,19.63,0,0,0-4-4.07c-5.54-4.77-17.31-4.53-24.11-5.4-8.43-1.08-18.15-1.15-25.82-5.29-4-2.16-6.24-6-8.7-9.66-2.91-4.33-5.78-8.7-8.75-13A71.22,71.22,0,0,0,385,482c-2.86-2.25-6.06-4.66-8.28-7.57s-3.1-6.51-4-9.89a101.4,101.4,0,0,0-5.41-14.43c.66-.17,1.31-.36,1.82-.53a43.45,43.45,0,0,0,9.37-5.1,73.93,73.93,0,0,0,15.87-14.51c10.25-12.26,13.21-27.69,20.22-41.66a9.55,9.55,0,0,0,.88-3.06c6,7.29,13.22,13.81,21.26,18a187.22,187.22,0,0,0,21.43,9.11,56.5,56.5,0,0,0,5.85,1.76c-.58,6.52,2.14,14.23,4.95,19.18a21.27,21.27,0,0,0,8.59,8.23c4.75,2.68,8.46,2.22,13.77,1.35l.18-.05a.92.92,0,0,0,.41,0c8.92-1.31,13.08-10.59,15.47-18.42,3.74-12.25,2.58-23.55-2.53-35.28-2.55-5.88-5.62-11.51-8.7-17.13s-5.71-11.38-9.59-16.41c-4.91-6.38-11-11.89-17.28-17.08-1.37-4-2.81-7.79-3.18-12,1.87-2.46,3.64-5,5.62-7.34,3.34-4,6.72-6.22,11.78-6.7,7.76-.75,15.25-4.58,21.27-9.34,6.6-5.22,11.67-12.08,16.75-18.72,2.51-3.28,5-7.15,8.84-9s8.31-1.36,12.27-2.78c8.11-2.9,14.64-10.95,20.57-16.84,5.76-5.72,10.69-11.2,12.14-19.41a51.55,51.55,0,0,0,.71-12.52c-.19-2.77-.25-8.95-2.27-11.18-1.78-1.95-6.46-2.27-8.94-2.37A36.59,36.59,0,0,0,553,212.1c-9.58,2.9-17.5,9.09-25.58,14.73-7,4.88-14.63,8.16-22.15,12a43.71,43.71,0,0,1,.54-6.26,22.53,22.53,0,0,1,.7-2.94,2.11,2.11,0,0,0,.26-.48,29.38,29.38,0,0,1,8.5-12.18c2.71-2.24,6-3.59,8.91-5.55,5.88-4,9.45-9.68,12.31-16.06,6.64-14.81,7.89-31.72,19.64-44,5.25-5.48,12.36-9.05,16.47-15.61,4-6.33,4.37-13.87,3-21-1.49-8-5.67-13.45-10-20-2.42-3.64-2.71-7.76-7.12-9.07,0-1.66-.76-3.27-2.13-3.17-10.73.74-19.91,7.61-30.5,8.76-6.2.68-11.84-1.76-17.64-3.52a80.73,80.73,0,0,0-15.63-3c-10.36-1-21.45-1.81-31.62.87-8.88,2.34-19.24,7.47-25,14.9-9.37-3.91-20.1-2.69-26.73,7.24a33.11,33.11,0,0,0-5.08,22.07,21,21,0,0,0,1.56,5.92c-1.61,2.84-2.25,6.11-4,8.94A24.93,24.93,0,0,1,394.9,152c-5.54,3.88-12.74,5.79-18.73,9-13.65,7.29-28.22,13.87-40.56,23.31a119,119,0,0,0-28.74,31.51C304.21,220.11,299.47,229.07,299.47,229.07Zm210.45-12.49c-6.92,1.62-9.37,10.95-10,17.09-1.14,10.34.31,20-4.33,29.75-7.8,16.31-23.86,27.76-30.56,44.65h0c-3.58,5.29-5.83,15.21-4.76,23.16l-1.64-1.3c-2.41-12.73-8-23.43-14.74-34.37-3.56-5.8-6.48-10.54-11.9-14.8-2.35-1.86-5.11-4-7.94-5.1-2.52-.94-5.76-2.4-8.44-2.34-1.64,0-1.42,2.73-.68,3.57,2,2.31,4.74,4,7,6.13,2,1.89,4.26,3.5,6.34,5.27s3.9,3.79,5.94,5.59,4.49,3.11,6.47,5c8.49,8.26,12.8,21.39,14.42,32.84.2,1.43.85,2,1.55,2,7.42,7.69,15.22,14.52,22.1,22.69,8.15,9.67,11.52,19.1,15.8,29.63,4,9.82,8.78,20.65,7.2,31.52-1.3,8.94-3.14,15.85-10.38,21.51a1,1,0,0,0-.17.18c-4.36-.88-8.42,0-12.06-3.18a22.92,22.92,0,0,1-6.48-10.34c-1-3.14-1.16-6.91-1.79-10.44,3.5.33,9.51.34,9.33,4.63-.11,2.57,2.77,3.79,3.31.77,3.32-18.53-23.2-18.84-34.62-22.19-8.27-2.43-16.76-5.93-23.4-11.52S413.65,374.85,407.49,369c-1.46-1.39-2,2-1.5,2.89s.86,1.45,1.53,2.46a19.47,19.47,0,0,0-2,2.77c-6.89,12.4-9.5,27-17.23,38.88a72.66,72.66,0,0,1-13.12,14.72c-2.5,2.22-5.11,4.29-7.67,6.44-1.4,1.19-2.83,2.36-4.11,3.68-.08-.2-.16-.4-.23-.6-2.82-7.6-5.1-15.55-9.42-22.47-4.17-6.69-9.7-11.89-15.19-17.42-1.67-1.69-2.65,2.34-1.84,3.5,5.24,7.51,10.73,15.63,14.16,24.16,3.33,8.3,3.66,17.26,7.09,25.58,1.82,4.43,3.81,8.74,5.3,13.3,1.12,3.43,1.86,7.19,3.68,10.34,3.56,6.16,10.1,9.68,15.77,13.57,7.72,5.29,12.38,12.75,17.49,20.39,4.53,6.78,8.79,14.92,15.73,19.54s15.93,5.58,24,5.28c4.78-.17,9.48-.49,14.26-.2,3.23.2,4.21.61,7.35,1.74,3.51,1.27,7.44,5.58,9.36,8.73,3,4.95,3.67,9.51,1.18,14.44l0,0a13.16,13.16,0,0,1-6.45,5.73c-4.82,2-10.1,2.64-15.22,3.28-9.71,1.2-21.36,1.8-30.69-1.45-10.09-3.51-19.51-6.61-30.23-7.56-5.12-.46-10.37-1.26-15.52-1.06-4.33.17-7.16,3-10.88,4.34l-.11,0c-5.84-1.61-7.44-11-9.73-15.71-3-6.16-6.22-11.06-11.68-15.31-11.17-8.69-24.76-9.47-37.65-14.19a113,113,0,0,1-34.42-20.19c-9.61-8.22-16.91-18.23-24.58-28.18-7.52-9.76-18.24-18.89-30.25-22.4-2.54-.74-3.09,4.39-1,5.24,13,5.31,18.55,16.89,25.59,28.14,6.91,11.05,13.86,21.61,23.34,30.68a107.8,107.8,0,0,0,10.15,8.58c-3.36,1.22-6.42,5.5-8.55,8a83.26,83.26,0,0,0-11.8,18,81.82,81.82,0,0,0-6.65,21.83c-.6,3.82-.88,7.67-1.3,11.52-.36,3.28-1,6.52-.3,9.79.21.92,1.21,2.08,2,.85,2.57-4.07,2.6-9.67,3.62-14.29,1.31-5.92,2.7-11.85,5.36-17.3a38.57,38.57,0,0,0,2.55,24.41c2.31,4.94,5.78,9.37,9.21,13.59,4.39,5.41,10.89,11.45,10.16,19.05-.63,6.5-2.08,13.63-5.56,19.17-4,6.32-9.28,8.61-16.44,7.66-6.06-.8-12.08-2.33-16.8-6.62-.78-.71-1.31-1.32-2-2.07-.26-.44-.43-1.06-.6-1.4a79.11,79.11,0,0,0-5.93-9c-3.51-5-6.55-10.33-9.86-15.45-6-9.3-9.6-17.2-14.38-27.18a20.23,20.23,0,0,1-2.21-5.7c-.31-1.49-.45-2.22-.59-3-1-6,1.44-13,3-18.78,2-7.29,4.93-14.26,6.78-21.59a96,96,0,0,0,3-22.75c.07-15.14-4-31.15-10-45-2.92-6.74-6-13.42-8.92-20.16a68.85,68.85,0,0,0-4.09-8.74c7.06-1.07,15-6.92,14.54-14.53-.07-1-.68-2.69-1.94-1.78-2.19,1.56-3.35,4.05-5.74,5.54a15.52,15.52,0,0,1-8.61,2.44,20.07,20.07,0,0,1-17-29.33c3-5.69,7.19-8.28,11.7-12.32a7.79,7.79,0,0,1,2.24-.95c2.2-.8,3-.85,3.2-2.77,3.59-31.35,25.32-57.26,44.9-80.5,9.83-11.68,19.29-23.75,29.61-35a125.37,125.37,0,0,1,13.44-13.14c5.1-4.28,11.13-6.46,17.69-9.52-.74,5.9-.19,8.12-3.11,13.56-.66,1.22.3,4.66,1.68,2.7,3.69-5.24,4.34-11.45,5.88-17.51,2-7.8,7.06-13.76,12-19.91,9.55-11.87,19.62-23.46,32.53-31.8C359,181.91,374,175.58,388,167.42c8.47-4.95,19.1-15.25,21.15-25.9a53.24,53.24,0,0,0,7.68,7.92c1.41,1.22,2-1.85,1.38-2.72-1.7-2.61-3.26-5.38-4.89-8.06-1.93-3.18-2.29-6.42-2.57-10a24.21,24.21,0,0,1,3.47-14.82c7.32-12.46,24.06-7.72,33.33-.4,1.45,1.15,2.11-1.86,1.42-2.77a32.29,32.29,0,0,0-6.54-6.41c6.7-3.8,13-7.78,20.76-9.85,10.61-2.82,22.92-1.88,33.76-1,10.53.87,20.65,5.32,31.29,3.89,9.87-1.32,18.9-6.06,28.63-8.13,0,0,.06,0,.08,0h0a5.19,5.19,0,0,1,3.84,4.54c.14,1.18-.39,2.47-.21,3.72.35,2.38,1.86,4,3.35,5.77,5.32,6.34,9.87,14,5.4,22.2-3.27,6-10.33,9.17-15.17,13.74-5.13,4.84-10.85,11.73-13.65,18.2-5.7,13.11-6.19,28.15-13.17,40.82A33.32,33.32,0,0,1,521.7,206c-2.59,2.53-6.08,4-8.51,6.7C512.31,213.68,509.92,216.58,509.92,216.58Zm59.28,24.51c-2.2,3.2-5.63,5.16-8.58,7.56-3.55,2.88-7,5.85-10.5,8.84-3.06,2.65-6.11,5.09-10.12,6.07-3.45.85-7.1.77-10.45,2.06-6.71,2.59-10.57,9.53-14.85,14.89-4.66,5.83-10.41,11.89-17,15.43a63.82,63.82,0,0,1-11.89,4.4c-3.7,1.12-6.76,3.6-9.92,5.81a35.79,35.79,0,0,0-9.81,10.7,22.37,22.37,0,0,1,1.43-7.43v0c2.31-3.42,4.34-6.94,7.17-10s5.47-5.71,8.09-8.69a143,143,0,0,0,15.49-20.37,47.06,47.06,0,0,0,7-23.44c0-1.39,0-2.79,0-4.18,13.54-4.23,24.34-12.48,36.41-19.71,7.18-4.31,15.32-7.66,23.84-6.89,2.61.24,5.25.22,6.32,3a22.59,22.59,0,0,1,.81,6.55C572.85,230.9,572.24,236.69,569.2,241.09Z" transform="translate(-15.44 -82.53)"/>
    </g>
  </g>
  <g id="Stars">
    <circle class="cls-2" cx="7.33" cy="324.47" r="7.33"/>
    <circle class="cls-2" cx="54.22" cy="268.25" r="4.89"/>
    <circle class="cls-2" cx="118.94" cy="283.53" r="6.06"/>
    <circle class="cls-2" cx="194.67" cy="299.36" r="5.78"/>
    <circle class="cls-2" cx="237.44" cy="355.92" r="8.11"/>
    <circle class="cls-2" cx="274.44" cy="414.25" r="5.78"/>
    <circle class="cls-2" cx="354" cy="451.14" r="5.33"/>
    <circle class="cls-2" cx="436.78" cy="478.48" r="4.11"/>
    <circle class="cls-2" cx="317.9" cy="262.79" r="7.43"/>
    <circle class="cls-2" cx="298.47" cy="192.61" r="6.36"/>
    <circle class="cls-2" cx="416.56" cy="182.59" r="3.67"/>
    <circle class="cls-2" cx="427.44" cy="263.7" r="5.22"/>
    <circle class="cls-2" cx="469.11" cy="315.14" r="3.78"/>
    <circle class="cls-2" cx="487" cy="49.03" r="9.22"/>
    <circle class="cls-2" cx="430" cy="100.47" r="6.44"/>
    <circle class="cls-2" cx="236.78" cy="539.92" r="6.33"/>
    <line class="cls-3" x1="487" y1="49.03" x2="430" y2="100.47"/>
    <line class="cls-4" x1="469.11" y1="315.14" x2="427.44" y2="263.7"/>
    <g>
      <line class="cls-4" x1="7.33" y1="324.47" x2="54.22" y2="268.25"/>
      <line class="cls-4" x1="118.94" y1="283.53" x2="54.22" y2="268.25"/>
      <line class="cls-4" x1="194.67" y1="299.36" x2="118.94" y2="283.53"/>
      <line class="cls-4" x1="237.44" y1="355.92" x2="194.67" y2="299.36"/>
      <line class="cls-4" x1="274.44" y1="414.25" x2="237.44" y2="355.92"/>
      <line class="cls-4" x1="317.9" y1="262.79" x2="237.44" y2="355.92"/>
      <line class="cls-4" x1="298.47" y1="192.61" x2="194.67" y2="299.36"/>
      <line class="cls-4" x1="430" y1="100.47" x2="298.47" y2="192.61"/>
      <line class="cls-4" x1="416.56" y1="182.59" x2="487" y2="49.03"/>
      <line class="cls-4" x1="427.44" y1="263.7" x2="416.56" y2="182.59"/>
      <line class="cls-4" x1="354" y1="451.14" x2="274.44" y2="414.25"/>
      <line class="cls-4" x1="436.78" y1="478.48" x2="354" y2="451.14"/>
      <line class="cls-4" x1="236.78" y1="539.92" x2="237.44" y2="355.92"/>
      <line class="cls-4" x1="317.9" y1="263.7" x2="416.56" y2="182.59"/>
      <line class="cls-4" x1="430" y1="100.47" x2="487" y2="49.03"/>
    </g>
    <line class="cls-4" x1="298.47" y1="192.27" x2="317.9" y2="263.7"/>
  </g>
</svg>
